<svg xmlns="http://www.w3.org/2000/svg" width="122" height="122" fill="none" viewBox="0 0 122 122"><circle cx="61" cy="61" r="59" stroke="#8D1C02" stroke-width="4"/><path fill="#8D1C02" d="M88.344 30.977a9.286 9.286 0 0 0-13.125 11.746L65.124 57.72h14.973l4.66-9.461a9.297 9.297 0 0 0 3.587-17.282ZM88.344 59.906h-57.97A1.094 1.094 0 0 0 29.282 61v3.281a1.093 1.093 0 0 0 .81 1.094l4.659 1.236v2.187a18.496 18.496 0 0 0 14.087 17.905l-.962 4.703a1.095 1.095 0 0 0 1.094 1.313h26.25a1.095 1.095 0 0 0 1.093-1.313l-.94-4.703a18.495 18.495 0 0 0 14.065-17.926V61a1.094 1.094 0 0 0-1.093-1.094ZM52.348 54.175a63.433 63.433 0 0 0-14-10.675l-1.039 1.925a61.556 61.556 0 0 1 13.847 10.697 9.844 9.844 0 0 1-5.02 1.29 14.952 14.952 0 0 1-7.952-2.548c-6.836-4.287-8.017-14.58-8.071-15.017a1.094 1.094 0 0 1 1.006-1.203c.525 0 12.873-.93 17.904 4.101a12.982 12.982 0 0 1 3.325 11.43ZM66.84 48.367c-2.996 3.817-6.135 4.528-8.06 4.528a6.177 6.177 0 0 1-1.094-.087 47.361 47.361 0 0 1 7.328-11.495l-1.64-1.444a49.601 49.601 0 0 0-7.504 11.615 10.313 10.313 0 0 1-.503-9.318c2.396-5.086 11.725-7.657 12.119-7.82a1.095 1.095 0 0 1 1.356.798c.088.295 1.936 8.225-2.001 13.223Z"/><path fill="#8D1C02" d="m54.798 57.063-1.75 1.312a27.748 27.748 0 0 0-1.892-2.253c.212-.113.413-.245.602-.394.177-.14.307-.33.372-.547 0-.065.11-.426.207-1.006a31.992 31.992 0 0 1 2.461 2.888ZM57.719 52.808a27.37 27.37 0 0 0-.69 1.936l-2.1-.645c.282-.903.61-1.79.985-2.658.15.28.318.55.503.809.134.184.32.321.536.394.251.073.507.127.766.164Z"/></svg>