<svg xmlns="http://www.w3.org/2000/svg" width="122" height="122" fill="none" viewBox="0 0 122 122">
  <g fill="#8D1C02" clip-path="url(#a)">
    <path
      d="M37.702 82.89c.459.319.602.93.339 1.422a116.444 116.444 0 0 0-4.339 9.012 1.117 1.117 0 0 1-2.052-.882 117.283 117.283 0 0 1 4.431-9.19c.295-.55 1.018-.782 1.621-.362ZM65.544 50.258c-.617.532-1.229 1.068-1.834 1.61a1.086 1.086 0 0 1-.748.28 1.1 1.1 0 0 1-.753-1.921c.62-.556 1.247-1.107 1.88-1.653a1.101 1.101 0 0 1 1.603.176 1.097 1.097 0 0 1-.148 1.508ZM43.973 69.582a.49.49 0 0 1-.283.492 13.5 13.5 0 0 0-5.366 4.524c-1.709 2.449-2.235 3.157-2.465 3.611a.482.482 0 0 1-.707.176 11.337 11.337 0 0 1-2.823-15.809l.551-.79a3.955 3.955 0 0 1 5.511-.979l.897.627a11.323 11.323 0 0 1 4.685 8.148ZM59.693 52.119a.51.51 0 0 1-.385.446 13.521 13.521 0 0 0-6.111 3.438c-2.964 2.889-2.854 2.76-3.072 3.053a.504.504 0 0 1-.767.057c-4.378-4.487-4.288-11.665.201-16.044l.69-.671a3.963 3.963 0 0 1 5.597.07l.671.69a11.288 11.288 0 0 1 3.176 8.96ZM76.086 38.508a.49.49 0 0 1-.412.39c-4.076.59-6.184 2.587-8.553 4.463-.606.48-.98.745-1.28 1.072a.485.485 0 0 1-.752-.042c-3.903-4.925-3.057-12.05 1.848-15.937l.755-.598a3.955 3.955 0 0 1 5.56.645l.597.754a11.296 11.296 0 0 1 2.237 9.253ZM57.72 79.133l-.55.789c-3.57 5.112-10.653 6.4-15.797 2.805l-3.118-2.177a1.116 1.116 0 0 1-.277-1.555l2.178-3.118c3.581-5.13 10.668-6.388 15.796-2.806l.79.55a3.964 3.964 0 0 1 .979 5.512ZM86.505 51.605l-.755.599c-4.904 3.883-12.052 3.054-15.938-1.85l-2.361-2.981a1.117 1.117 0 0 1 .183-1.57l2.98-2.36c4.913-3.893 12.045-3.068 15.938 1.849l.598.753a3.956 3.956 0 0 1-.645 5.56ZM71.47 58.493a3.961 3.961 0 0 1-.07 5.596l-.689.673c-4.456 4.345-11.64 4.313-16.042-.203l-2.656-2.723a1.117 1.117 0 0 1 .02-1.578l2.723-2.657a11.34 11.34 0 0 1 16.043.203l.672.69ZM50.839 65.241c-.89 1.078-1.758 2.17-2.606 3.275a1.085 1.085 0 0 1-.705.416 1.096 1.096 0 0 1-1.07-1.746 118.58 118.58 0 0 1 2.675-3.365 1.094 1.094 0 0 1 1.626-.069c.436.445.422 1.074.08 1.49ZM90.685 32.56c-.103.519-.064 5.034-4.188 8.4a1.11 1.11 0 0 1-1.316.064 13.55 13.55 0 0 0-5.757-2.154 1.112 1.112 0 0 1-.964-1.213 13.597 13.597 0 0 0-.774-6.086 1.111 1.111 0 0 1 .36-1.262c4.189-3.243 8.648-2.176 9.145-2.162.03 0 .062.004.092.008a3.957 3.957 0 0 1 3.415 4.306.937.937 0 0 1-.013.098Z" />
  </g>
  <circle cx="61" cy="61" r="59" stroke="#8D1C02" stroke-width="4" />
  <defs>
    <clipPath id="a">
      <path fill="#fff" d="M27 27h67v67H27z" />
    </clipPath>
  </defs>
</svg>